<svg xmlns="http://www.w3.org/2000/svg" xmlns:xlink="http://www.w3.org/1999/xlink" preserveAspectRatio="xMidYMid meet" version="1.0" viewBox="91.5 22.7 329.1 466.6" zoomAndPan="magnify" style="fill: rgb(255, 255, 255);" original_string_length="1469" width="32.920740427642464px" height="46.786582003109466px"><g><g><g><g id="__id0_sk9ijfbgel"><path d="M256,489.298c0,0-0.001,0-0.001,0c-3.635-0.001-6.983-1.974-8.745-5.152 c-10.093-18.211-25.617-42.906-43.591-71.5C153.678,333.129,91.471,234.169,91.471,187.231 C91.471,96.51,165.278,22.702,256,22.702S420.529,96.51,420.529,187.231c0,49.374-58.675,141.681-110.442,223.121 c-17.798,27.999-34.608,54.445-45.342,73.796C262.982,487.326,259.634,489.298,256,489.298z M256,42.702 c-79.694,0-144.529,64.835-144.529,144.529c0,41.173,63.071,141.509,109.124,214.77c13.591,21.622,25.792,41.031,35.415,57.27 c10.351-17.411,23.485-38.072,37.199-59.647C338.5,328.37,400.529,230.787,400.529,187.231 C400.529,107.538,335.693,42.702,256,42.702z" style="fill: inherit;"/></g></g><g><g id="__id1_sk9ijfbgel"><path d="M256,260.453c-43.585,0-79.045-35.459-79.045-79.044s35.459-79.045,79.045-79.045 c43.6,0,79.07,35.459,79.07,79.045S299.6,260.453,256,260.453z M256,122.364c-32.558,0-59.045,26.487-59.045,59.045 s26.487,59.045,59.045,59.045c32.571,0,59.07-26.487,59.07-59.045S288.571,122.364,256,122.364z" style="fill: inherit;"/></g></g></g></g></svg>